<svg xmlns="http://www.w3.org/2000/svg" viewBox="0 0 48 48" fill="none">
  <rect width="48" height="48" rx="10" fill="#6F29FF"/>
  <g fill="#FFFFFF" transform="translate(0 8)">
    <path d="M28.7452 0.0499943C29.3687 -0.0214756 30.9431 0.0174098 31.6381 0.0180174C33.6279 0.0329038 35.6176 0.0269789 37.6073 0.000244141C37.9458 1.15288 38.4111 2.45984 38.7891 3.62569L41.1318 10.8437C38.7802 10.9527 36.152 10.7687 33.7703 10.8188C32.0193 10.8557 30.1961 10.7226 28.4612 11.2014C22.0467 12.9713 19.8914 18.3673 16.7499 23.549C15.1759 26.1455 13.6026 28.6479 12.0805 31.2103L11.6666 31.9194C10.5996 31.9722 9.42407 31.9176 8.34659 31.9306C5.58855 31.964 2.75097 31.8662 0 31.9517C0.997865 30.5292 2.50586 27.8959 3.46749 26.3335L10.5896 14.7129C12.8592 10.9904 14.5347 7.73199 17.8721 4.82268C21.2443 1.883 24.3891 0.573297 28.7452 0.0499943Z"/>
    <path d="M38.3618 17.8626C38.3839 18.3225 39.4974 21.737 39.7447 22.4479C40.7885 25.4482 41.7117 29.0015 42.8468 31.9303C41.7937 31.9141 40.7088 31.9275 39.653 31.9275C38.8473 29.1833 37.9224 26.436 37.0768 23.7013C36.7626 22.685 35.9017 21.6732 34.9229 21.2676C33.7384 20.7767 32.2683 20.8416 31.0836 21.3173C30.3712 21.6337 29.7327 22.0982 29.2099 22.6805C28.5719 23.4055 27.1835 25.8009 26.6472 26.7238C25.6773 28.3928 24.4654 30.2545 23.5761 31.9292C22.505 31.9238 20.7214 31.8709 19.7114 31.9733C20.4259 30.5267 21.7266 28.4617 22.6104 27.09C25.1161 23.2008 26.6843 18.2008 31.9865 17.9032C32.4559 17.8373 33.7521 17.8563 34.2521 17.8566L38.3618 17.8626Z"/>
    <path d="M30.693 13.1161C32.8075 12.965 36.2745 13.0789 38.499 13.0869C38.6766 14.0339 39.1326 15.2447 39.3859 16.2471C37.5936 16.3169 35.7941 16.2525 34.0053 16.2721C32.7015 16.2864 31.2113 16.1606 29.9673 16.5009C26.065 17.5685 24.7269 20.5448 22.8602 23.6919L19.7354 28.9582C19.1403 29.937 18.5601 30.9247 17.9947 31.9212C17.0191 31.9231 14.7918 31.8713 13.897 32.0002C14.6112 30.9063 15.3757 29.5605 16.0567 28.4225L19.6507 22.4045C22.4928 17.5959 24.5497 13.7028 30.693 13.1161Z"/>
    <path d="M39.459 17.9398C40.5644 17.9793 41.8666 17.9475 42.9877 17.9492C43.1074 18.7702 43.924 21.0614 44.235 22.0024L47.622 31.9301L43.9359 31.9237C42.5317 27.2651 40.8029 22.6291 39.459 17.9398Z"/>
  </g>
</svg>
